<?xml version="1.0" encoding="utf-8"?><svg xml:space="preserve" viewBox="0 0 100 100" y="0" x="0" xmlns="http://www.w3.org/2000/svg" id="圖層_1" version="1.1" width="200px" height="200px" xmlns:xlink="http://www.w3.org/1999/xlink" style="width:100%;height:100%;animation-play-state:paused" ><g class="ldl-scale" style="transform-origin:50% 50% 0px;transform:rotate(0deg) scale(0.8);animation-play-state:paused" ><path stroke="#333" stroke-linejoin="round" stroke-linecap="round" stroke-width="3.5" fill="none" stroke-miterlimit="10" d="M38.693 31.971V18.763c0-5.462 3.379-8.763 7.547-8.763h0c4.168 0 7.547 3.301 7.547 8.763v13.208" style="stroke:rgb(51, 51, 51);animation-play-state:paused" ></path>
<path d="M70.954 22.396H29.046l-6.908 60.831L35.565 90l42.297-6.773z" stroke="#333" fill="#f8b26a" stroke-miterlimit="10" stroke-linejoin="round" stroke-linecap="round" stroke-width="3.5" style="stroke:rgb(51, 51, 51);fill:rgb(248, 178, 106);animation-play-state:paused" ></path>
<path d="M29.046 22.396l-6.908 60.831L35.565 90V22.396z" stroke-miterlimit="10" stroke-width="3.5" stroke-linejoin="round" stroke="#333" fill="#f47e60" stroke-linecap="round" style="stroke:rgb(51, 51, 51);fill:rgb(244, 126, 96);animation-play-state:paused" ></path>
<path stroke="#333" stroke-linejoin="round" stroke-linecap="round" stroke-width="3.5" fill="none" stroke-miterlimit="10" d="M45.453 31.971V18.763C45.453 13.301 48.832 10 53 10h0c4.168 0 7.547 3.301 7.547 8.763v13.208" style="stroke:rgb(51, 51, 51);animation-play-state:paused" ></path>
<g style="animation-play-state:paused" ><path d="M35.565 76.493l38.49-26.794L72.26 33.89 35.565 59.435z" stroke-miterlimit="10" stroke-width="3.5" stroke-linejoin="round" stroke="#333" stroke-linecap="round" fill="#e15b64" style="stroke:rgb(51, 51, 51);fill:rgb(225, 91, 100);animation-play-state:paused" ></path>
<path d="M23.919 67.543h0l-.317 2.79h0z" stroke-miterlimit="10" stroke-width="3.5" stroke-linejoin="round" stroke="#333" stroke-linecap="round" fill="#e15b64" style="stroke:rgb(51, 51, 51);fill:rgb(225, 91, 100);animation-play-state:paused" ></path></g>
<path d="M35.565 71.349l-12.343 2.33-1.084 9.548L35.565 90z" stroke-miterlimit="10" stroke-linejoin="round" stroke-linecap="round" stroke-width="3.5" stroke="#000" opacity=".2" style="animation-play-state:paused" ></path>
<path d="M42.313 59.333l.02 1.5" stroke-miterlimit="10" stroke-linejoin="round" stroke-linecap="round" stroke-width="3.5" stroke="#fff" fill="none" style="stroke:rgb(255, 255, 255);animation-play-state:paused" ></path>
<path d="M42.167 48.5l.077 5.75" stroke-miterlimit="10" stroke-linejoin="round" stroke-linecap="round" stroke-width="3.5" stroke="#fff" fill="none" style="stroke:rgb(255, 255, 255);animation-play-state:paused" ></path>
<path d="M59.375 79.75l11.875-2" stroke="#333" stroke-linejoin="round" stroke-linecap="round" stroke-width="3.5" fill="none" stroke-miterlimit="10" style="stroke:rgb(51, 51, 51);animation-play-state:paused" ></path>
<path d="M46.763 88.207l31.099-4.98-6.327-55.717z" stroke-miterlimit="10" stroke-linejoin="round" stroke-linecap="round" stroke-width="3.5" stroke="#000" opacity=".2" style="animation-play-state:paused" ></path>
<metadata xmlns:d="https://loading.io/stock/" style="animation-play-state:paused" ><d:name style="animation-play-state:paused" >shopping</d:name>


<d:tags style="animation-play-state:paused" >shopping,bag,buy,purchase,cart,payment,spend,department store,mall</d:tags>


<d:license style="animation-play-state:paused" >by</d:license>


<d:slug style="animation-play-state:paused" >xbire5</d:slug></metadata></g><!-- generated by https://loading.io/ --></svg>