<?xml version="1.0" encoding="utf-8"?><svg xml:space="preserve" viewBox="0 0 100 100" y="0" x="0" xmlns="http://www.w3.org/2000/svg" id="圖層_1" version="1.1" width="200px" height="200px" xmlns:xlink="http://www.w3.org/1999/xlink" style="width:100%;height:100%;animation-play-state:paused" ><g class="ldl-scale" style="transform-origin:50% 50% 0px;transform:rotate(0deg) scale(0.8);animation-play-state:paused" ><path stroke-miterlimit="10" stroke-width="2" stroke="#333" fill="#a0c8d7" d="M16.907 36.62v38.55a4.46 4.46 0 0 0 4.459 4.459H50V36.62H16.907z" style="stroke:rgb(51, 51, 51);fill:rgb(160, 200, 215);animation-play-state:paused" ></path>
<path d="M50 37.128h-9.724L17.72 59.683v10.098L50 37.501z" fill="#fff" style="fill:rgb(255, 255, 255);animation-play-state:paused" ></path>
<path fill="#fff" d="M50 42.573L17.731 74.842c.025.977.377 1.864.944 2.578L50 46.095v-3.522z" style="fill:rgb(255, 255, 255);animation-play-state:paused" ></path>
<path d="M55.348 54.611h21.985v25.018H55.348z" stroke-miterlimit="10" stroke-width="2" stroke="#333" fill="#66503a" style="stroke:rgb(51, 51, 51);fill:rgb(102, 80, 58);animation-play-state:paused" ></path>
<path stroke-miterlimit="10" stroke-width="2" stroke="#333" fill="#e0e0e0" d="M50 36.62v43.009h5.348V54.611h21.985v25.018h1.301a4.46 4.46 0 0 0 4.459-4.459V36.62H50z" style="stroke:rgb(51, 51, 51);fill:rgb(224, 224, 224);animation-play-state:paused" ></path>
<path stroke-miterlimit="10" stroke-width="2" stroke="#333" fill="#c33737" d="M15.833 49.649h0A6.833 6.833 0 0 1 9 42.816l7.562-20.799a2.5 2.5 0 0 1 2.351-1.647h9.194l-5.441 22.446a6.832 6.832 0 0 1-6.833 6.833z" style="stroke:rgb(51, 51, 51);fill:rgb(195, 55, 55);animation-play-state:paused" ></path>
<path stroke-miterlimit="10" stroke-width="2" stroke="#333" fill="#f5e6c8" d="M29.5 49.649h0a6.833 6.833 0 0 1-6.833-6.833l5.441-22.446h10.946l-2.72 22.446a6.834 6.834 0 0 1-6.834 6.833z" style="stroke:rgb(51, 51, 51);fill:rgb(245, 230, 200);animation-play-state:paused" ></path>
<path stroke-miterlimit="10" stroke-width="2" stroke="#333" fill="#c33737" d="M43.167 49.649h0a6.833 6.833 0 0 1-6.833-6.833l2.72-22.446H50v22.446a6.833 6.833 0 0 1-6.833 6.833z" style="stroke:rgb(51, 51, 51);fill:rgb(195, 55, 55);animation-play-state:paused" ></path>
<path stroke-miterlimit="10" stroke-width="2" stroke="#333" fill="#f5e6c8" d="M56.833 49.649h0A6.833 6.833 0 0 1 50 42.816V20.371h10.946l2.72 22.446a6.832 6.832 0 0 1-6.833 6.832z" style="stroke:rgb(51, 51, 51);fill:rgb(245, 230, 200);animation-play-state:paused" ></path>
<path stroke-miterlimit="10" stroke-width="2" stroke="#333" fill="#c33737" d="M70.5 49.649h0a6.833 6.833 0 0 1-6.833-6.833l-2.72-22.446h10.946l5.441 22.446a6.834 6.834 0 0 1-6.834 6.833z" style="stroke:rgb(51, 51, 51);fill:rgb(195, 55, 55);animation-play-state:paused" ></path>
<path stroke-miterlimit="10" stroke-width="2" stroke="#333" fill="#f5e6c8" d="M84.167 49.649h0a6.833 6.833 0 0 1-6.833-6.833L71.893 20.37h9.194c1.052 0 1.991.658 2.351 1.647L91 42.816a6.833 6.833 0 0 1-6.833 6.833z" style="stroke:rgb(51, 51, 51);fill:rgb(245, 230, 200);animation-play-state:paused" ></path>
<metadata xmlns:d="https://loading.io/stock/" style="animation-play-state:paused" ><d:name style="animation-play-state:paused" >shop</d:name>
<d:tags style="animation-play-state:paused" >vendor,food stand,sell,business,shop,business</d:tags>
<d:license style="animation-play-state:paused" >pro</d:license>
<d:slug style="animation-play-state:paused" >mfxc3x</d:slug></metadata></g><!-- generated by https://loading.io/ --></svg>