<?xml version="1.0" encoding="utf-8"?><svg xml:space="preserve" viewBox="0 0 100 100" y="0" x="0" xmlns="http://www.w3.org/2000/svg" id="Layer_1" version="1.1" width="200px" height="200px" xmlns:xlink="http://www.w3.org/1999/xlink" style="width:100%;height:100%;animation-play-state:paused" ><g class="ldl-scale" style="transform-origin:50% 50% 0px;transform:rotate(0deg) scale(0.8);animation-play-state:paused" ><path fill="#c33837" d="M42.7 20.6L11.5 69.7c-1.8 2.7-2 6.1-.5 9 1.5 2.9 4.5 4.6 7.7 4.6H50V16.7c-2.9 0-5.6 1.4-7.3 3.9z" style="fill:rgb(195, 56, 55);animation-play-state:paused" ></path>
<path fill="#e15c64" d="M89 78.7c1.5-2.9 1.4-6.3-.4-9L57.2 20.6c-1.6-2.4-4.3-3.9-7.2-3.9v66.6h31.3c3.2 0 6.1-1.8 7.7-4.6z" style="fill:rgb(225, 92, 100);animation-play-state:paused" ></path>
<path d="M64.5 50.3l-5.8-5.8-8.7 8.7-8.7-8.7-5.8 5.8 8.7 8.7-8.7 8.7 5.8 5.8 8.7-8.7 8.7 8.7 5.8-5.8-8.7-8.7z" fill="#f4e6c8" style="fill:rgb(244, 230, 200);animation-play-state:paused" ></path>
<metadata xmlns:d="https://loading.io/stock/" style="animation-play-state:paused" ><d:name style="animation-play-state:paused" >error</d:name>
<d:tags style="animation-play-state:paused" >fail,disable,exception,errant,bad,break,stop,error,web application</d:tags>
<d:license style="animation-play-state:paused" >by</d:license>
<d:slug style="animation-play-state:paused" >4grrdv</d:slug></metadata></g><!-- generated by https://loading.io/ --></svg>