<?xml version="1.0" encoding="utf-8"?><svg xml:space="preserve" viewBox="0 0 100 100" y="0px" x="0px" xmlns:xlink="http://www.w3.org/1999/xlink" xmlns="http://www.w3.org/2000/svg" id="圖層_1" version="1.1" width="200px" height="200px" style="width:100%;height:100%;animation-play-state:paused" ><g class="ldl-scale" style="transform-origin:50% 50% 0px;transform:rotate(0deg) scale(0.8);animation-play-state:paused" ><g style="animation-play-state:paused" ><path d="M44.39,59.56c0.87,1.51,2.81,2.03,4.33,1.16c1.51-0.87,2.03-2.81,1.16-4.33l-11.1-19.23l-5.48,3.17L44.39,59.56z" stroke-miterlimit="10" stroke-linejoin="round" stroke-linecap="round" stroke-width="3.5" stroke="#000000" fill="#F47E5F" style="fill:rgb(244, 126, 95);animation-play-state:paused" ></path>
<path d="M46.4,56.72c-3.96,2.29-5.32,7.36-3.03,11.32l3.54,6.13c1.08,1.87,3.48,2.52,5.35,1.43l7.57-4.37c1.87-1.08,2.52-3.48,1.43-5.35 l-3.54-6.13C55.44,55.79,50.37,54.43,46.4,56.72z M55.34,67.21l-4.33,2.5l-2.66-4.61c-0.69-1.2-0.28-2.72,0.92-3.42l0,0 c1.2-0.69,2.72-0.28,3.42,0.92L55.34,67.21z" stroke-miterlimit="10" stroke-linejoin="round" stroke-linecap="round" stroke-width="3.5" stroke="#000000" fill="#F47E5F" style="fill:rgb(244, 126, 95);animation-play-state:paused" ></path>
<path d="M34.71,30.68c-0.13-0.09-0.27-0.18-0.41-0.25c-0.07-0.04-0.15-0.07-0.23-0.1c-0.09-0.04-0.18-0.07-0.28-0.1 c-0.08-0.02-0.15-0.05-0.23-0.07c-0.12-0.03-0.24-0.05-0.37-0.06c-0.05-0.01-0.1-0.02-0.16-0.02c-0.17-0.01-0.35,0-0.52,0.01 c-0.06,0.01-0.11,0.02-0.17,0.03c-0.13,0.02-0.26,0.05-0.39,0.09c-0.05,0.02-0.11,0.03-0.16,0.05c-0.18,0.06-0.35,0.14-0.52,0.24 s-0.32,0.21-0.47,0.34c-0.04,0.04-0.08,0.08-0.13,0.12c-0.1,0.09-0.19,0.19-0.27,0.3c-0.04,0.05-0.08,0.09-0.11,0.14 c-0.1,0.14-0.2,0.29-0.27,0.45C30,31.9,29.98,31.95,29.96,32c-0.05,0.11-0.09,0.23-0.13,0.35c-0.02,0.08-0.04,0.15-0.06,0.23 c-0.02,0.1-0.04,0.19-0.05,0.29c-0.01,0.08-0.02,0.16-0.03,0.25c-0.01,0.16,0,0.32,0.01,0.48c0.05,0.43,0.17,0.85,0.4,1.25 l3.18,5.51l5.48-3.17l-3.18-5.51C35.36,31.26,35.06,30.93,34.71,30.68z" stroke-miterlimit="10" stroke-linejoin="round" stroke-linecap="round" stroke-width="3.5" stroke="#000000" fill="#098BFF" style="fill:rgb(9, 139, 255);animation-play-state:paused" ></path>
<path d="M35.87,10.54c-0.83-1.43-2.66-1.93-4.1-1.1s-1.93,2.66-1.1,4.1l4.04,6.99l-4.3,2.48l-4.04-6.99c-0.83-1.43-2.66-1.93-4.1-1.1 s-1.93,2.66-1.1,4.1l4.04,6.99l-4.3,2.48l-4.04-6.99c-0.83-1.43-2.66-1.93-4.1-1.1s-1.93,2.66-1.1,4.1l5.22,9.04l5.44,8.58 c1.08,1.87,3.48,2.52,5.35,1.43l5.6-3.23l-3.18-5.51c-0.23-0.4-0.36-0.82-0.4-1.25c-0.13-1.21,0.44-2.43,1.56-3.08 s2.47-0.53,3.45,0.19c0.35,0.25,0.65,0.58,0.88,0.97l3.18,5.51l5.6-3.23c1.87-1.08,2.52-3.48,1.43-5.35l-4.71-9L35.87,10.54z" stroke-miterlimit="10" stroke-linejoin="round" stroke-linecap="round" stroke-width="3.5" stroke="#000000" fill="#098BFF" style="fill:rgb(9, 139, 255);animation-play-state:paused" ></path></g>
<g style="animation-play-state:paused" ><path d="M79.45,16.48c-6-3.47-13.68-1.41-17.15,4.59L55.93,32.1c-1.08,1.87-0.44,4.27,1.43,5.35l4.73,2.73l3.18-5.51 c0.87-1.51,2.81-2.03,4.33-1.16s2.03,2.81,1.16,4.33l-3.18,5.51l4.73,2.73c1.87,1.08,4.27,0.44,5.35-1.43l6.37-11.03 C87.51,27.63,85.45,19.95,79.45,16.48z" stroke-miterlimit="10" stroke-linejoin="round" stroke-linecap="round" stroke-width="3.5" stroke="#000000" fill="#689991" style="fill:rgb(104, 153, 145);animation-play-state:paused" ></path>
<path d="M49.95,61.24c-0.96,1.66-0.74,3.57,0.48,4.28s2.99-0.07,3.94-1.72l12.15-21.04L62.1,40.2L49.95,61.24z" stroke-miterlimit="10" stroke-linejoin="round" stroke-linecap="round" stroke-width="3.5" stroke="#000000" fill="#F47E5F" style="fill:rgb(244, 126, 95);animation-play-state:paused" ></path>
<path d="M69.61,33.53c-1.51-0.87-3.45-0.36-4.33,1.16L62.1,40.2l5.48,3.17l3.18-5.51C71.64,36.34,71.12,34.4,69.61,33.53z" stroke-miterlimit="10" stroke-linejoin="round" stroke-linecap="round" stroke-width="3.5" stroke="#000000" fill="#689991" style="fill:rgb(104, 153, 145);animation-play-state:paused" ></path>
<path d="M52.79,63.49c-3.53-1.85-8.05-0.75-10.09,2.45l-3.16,4.95c-0.96,1.51-0.39,3.45,1.28,4.32l6.74,3.53c1.67,0.87,3.8,0.36,4.77-1.16 l3.16-4.95C57.54,69.43,56.32,65.34,52.79,63.49z M48.68,73.98l-3.86-2.02l2.37-3.72c0.62-0.97,1.98-1.3,3.04-0.74l0,0 c1.07,0.56,1.43,1.79,0.82,2.76L48.68,73.98z" stroke-miterlimit="10" stroke-linejoin="round" stroke-linecap="round" stroke-width="3.5" stroke="#000000" fill="#F47E5F" style="fill:rgb(244, 126, 95);animation-play-state:paused" ></path></g>
<g style="animation-play-state:paused" ><path d="M67.63,87.23c0,4.98-33.74,4.98-33.74,0l-3.73-36.18h41.2L67.63,87.23z" stroke-miterlimit="10" stroke-linejoin="round" stroke-linecap="round" stroke-width="3.5" stroke="#000000" fill="#F47E5F" style="fill:rgb(244, 126, 95);animation-play-state:paused" ></path>
<path d="M71.08,58.62c5.58,8.68,7.19,16.94,3.34,20.72c-5.25,5.16-18.69-0.02-30.01-11.55c-2.98-3.04-4.51-6.21-6.54-9.33" stroke-miterlimit="10" stroke-linejoin="round" stroke-linecap="round" stroke-width="3.5" stroke="#000000" fill="none" style="animation-play-state:paused" ></path>
<path d="M72.42,57.82H28.38c-1.87,0-3.38-1.51-3.38-3.38l0,0c0-1.87,1.51-3.38,3.38-3.38h44.04c1.87,0,3.38,1.51,3.38,3.38l0,0 C75.8,56.31,74.29,57.82,72.42,57.82z" stroke-miterlimit="10" stroke-linejoin="round" stroke-linecap="round" stroke-width="3.5" stroke="#000000" fill="#F7B26A" style="fill:rgb(247, 178, 106);animation-play-state:paused" ></path></g>
<metadata xmlns:d="https://loading.io/stock/" style="animation-play-state:paused" ><d:name style="animation-play-state:paused" >toy</d:name>


<d:tags style="animation-play-state:paused" >toy,sand,summer,tool,play,shovel,digging,bucket,beach</d:tags>


<d:license style="animation-play-state:paused" >by</d:license>


<d:slug style="animation-play-state:paused" >rflsfc</d:slug></metadata></g><!-- generated by https://loading.io/ --></svg>