<?xml version="1.0" encoding="utf-8"?><svg xml:space="preserve" viewBox="0 0 100 100" y="0px" x="0px" xmlns:xlink="http://www.w3.org/1999/xlink" xmlns="http://www.w3.org/2000/svg" id="圖層_1" version="1.1" width="200px" height="200px" style="width:100%;height:100%;animation-play-state:paused" ><g class="ldl-scale" style="transform-origin:50% 50% 0px;transform:rotate(0deg) scale(0.8);animation-play-state:paused" ><g style="animation-play-state:paused" ><path d="M73.9,32.5v-21H62.6c0,0.1,0,0.1,0,0.2c0,4.9-4,8.9-8.9,8.9s-8.9-4-8.9-8.9c0-0.1,0-0.1,0-0.2H33.4v21" stroke-miterlimit="10" stroke-linejoin="round" stroke-linecap="round" stroke-width="3.5" stroke="#333333" fill="#F2F2F3" style="stroke:rgb(51, 51, 51);fill:rgb(242, 242, 243);animation-play-state:paused" ></path>
<path d="M33.4,32.5v48.6h11.3c0-0.1,0-0.1,0-0.2c0-4.9,4-8.9,8.9-8.9s8.9,4,8.9,8.9c0,0.1,0,0.1,0,0.2h11.3V32.5" stroke-miterlimit="10" stroke-linejoin="round" stroke-linecap="round" stroke-width="3.5" stroke="#333333" fill="#F7B26A" style="stroke:rgb(51, 51, 51);fill:rgb(247, 178, 106);animation-play-state:paused" ></path>
<g style="animation-play-state:paused" ><g style="animation-play-state:paused" ><line y2="32.5" x2="36.4" y1="32.5" x1="33.4" stroke-linejoin="round" stroke-linecap="round" stroke-width="3.5" stroke="#333333" fill="none" style="stroke:rgb(51, 51, 51);animation-play-state:paused" ></line>
<line y2="32.5" x2="67.1" y1="32.5" x1="44.1" stroke-dasharray="5.7472,7.6629" stroke-linejoin="round" stroke-linecap="round" stroke-width="3.5" stroke="#333333" fill="none" style="stroke:rgb(51, 51, 51);animation-play-state:paused" ></line>
<line y2="32.5" x2="73.9" y1="32.5" x1="70.9" stroke-linejoin="round" stroke-linecap="round" stroke-width="3.5" stroke="#333333" fill="none" style="stroke:rgb(51, 51, 51);animation-play-state:paused" ></line></g></g>
<polygon points="53.7,41.1 57,47.9 64.5,48.9 59.1,54.2 60.4,61.7 53.7,58.1 47,61.7 48.3,54.2 42.9,48.9 50.3,47.9" stroke-miterlimit="10" stroke-linejoin="round" stroke-linecap="round" stroke-width="3.5" stroke="#333333" fill="#F4E6C8" style="stroke:rgb(51, 51, 51);fill:rgb(244, 230, 200);animation-play-state:paused" ></polygon></g>
<g style="animation-play-state:paused" ><path d="M66.6,39.9v-21H55.2c0,0.1,0,0.1,0,0.2c0,4.9-4,8.9-8.9,8.9s-8.9-4-8.9-8.9c0-0.1,0-0.1,0-0.2H26.1v21" stroke-miterlimit="10" stroke-linejoin="round" stroke-linecap="round" stroke-width="3.5" stroke="#333333" fill="#F2F2F3" style="stroke:rgb(51, 51, 51);fill:rgb(242, 242, 243);animation-play-state:paused" ></path>
<path d="M26.1,39.9v48.6h11.3c0-0.1,0-0.1,0-0.2c0-4.9,4-8.9,8.9-8.9s8.9,4,8.9,8.9c0,0.1,0,0.1,0,0.2h11.3V39.9" stroke-miterlimit="10" stroke-linejoin="round" stroke-linecap="round" stroke-width="3.5" stroke="#333333" fill="#F7B26A" style="stroke:rgb(51, 51, 51);fill:rgb(247, 178, 106);animation-play-state:paused" ></path>
<g style="animation-play-state:paused" ><g style="animation-play-state:paused" ><line y2="39.9" x2="29.1" y1="39.9" x1="26.1" stroke-linejoin="round" stroke-linecap="round" stroke-width="3.5" stroke="#333333" fill="none" style="stroke:rgb(51, 51, 51);animation-play-state:paused" ></line>
<line y2="39.9" x2="59.7" y1="39.9" x1="36.7" stroke-dasharray="5.7472,7.6629" stroke-linejoin="round" stroke-linecap="round" stroke-width="3.5" stroke="#333333" fill="none" style="stroke:rgb(51, 51, 51);animation-play-state:paused" ></line>
<line y2="39.9" x2="66.6" y1="39.9" x1="63.6" stroke-linejoin="round" stroke-linecap="round" stroke-width="3.5" stroke="#333333" fill="none" style="stroke:rgb(51, 51, 51);animation-play-state:paused" ></line></g></g>
<polygon points="46.3,48.5 49.7,55.2 57.1,56.3 51.7,61.6 53,69 46.3,65.5 39.6,69 40.9,61.6 35.5,56.3 43,55.2" stroke-miterlimit="10" stroke-linejoin="round" stroke-linecap="round" stroke-width="3.5" stroke="#333333" fill="#F4E6C8" style="stroke:rgb(51, 51, 51);fill:rgb(244, 230, 200);animation-play-state:paused" ></polygon></g>
<metadata xmlns:d="https://loading.io/stock/" style="animation-play-state:paused" ><d:name style="animation-play-state:paused" >ticket</d:name>


<d:tags style="animation-play-state:paused" >movie,ticket,permit,license,registration,sign up,token</d:tags>


<d:license style="animation-play-state:paused" >by</d:license>


<d:slug style="animation-play-state:paused" >wzt2v1</d:slug></metadata></g><!-- generated by https://loading.io/ --></svg>